<svg width="50" height="50" viewBox="0 0 50 50" fill="none" xmlns="http://www.w3.org/2000/svg">
<path d="M30.1728 11.1832C32.4847 12.6327 34.1058 15.0856 34.401 17.9329C35.3704 18.3889 36.4284 18.6258 37.4997 18.6267C41.55 18.6267 44.8328 15.3439 44.8328 11.2943C44.8328 7.24397 41.55 3.96118 37.4997 3.96118C33.4881 3.96243 30.234 7.18657 30.1728 11.1832ZM25.3688 26.1975C29.4191 26.1975 32.7019 22.9141 32.7019 18.8645C32.7019 14.8148 29.4184 11.532 25.3688 11.532C21.3191 11.532 18.0344 14.8154 18.0344 18.8651C18.0344 22.9148 21.3191 26.1975 25.3688 26.1975ZM28.4793 26.6974H22.257C17.0797 26.6974 12.8678 30.9099 12.8678 36.0871V43.6966L12.8872 43.8158L13.4113 43.9799C18.3521 45.5236 22.6445 46.0384 26.1775 46.0384C33.0781 46.0384 37.0779 44.071 37.3244 43.9456L37.8142 43.6979H37.8666V36.0871C37.8685 30.9099 33.6566 26.6974 28.4793 26.6974ZM40.6115 19.1272H34.4372C34.3744 21.5113 33.3719 23.7739 31.648 25.4219C36.2498 26.7903 39.6169 31.0578 39.6169 36.0983V38.4433C45.7132 38.2199 49.2263 36.4921 49.4578 36.376L49.9476 36.1277H50V28.5157C50 23.3391 45.7881 19.1272 40.6115 19.1272ZM12.5016 18.628C13.9361 18.628 15.2708 18.2093 16.4015 17.4961C16.7562 15.2013 17.9771 13.1299 19.8128 11.708C19.8203 11.5707 19.8334 11.4347 19.8334 11.2961C19.8334 7.24584 16.55 3.96305 12.5016 3.96305C8.45064 3.96305 5.16848 7.24584 5.16848 11.2961C5.16848 15.3446 8.45064 18.628 12.5016 18.628ZM19.0871 25.4219C17.3728 23.7818 16.3717 21.5336 16.2998 19.1621C16.0708 19.1453 15.8443 19.1272 15.6109 19.1272H9.38912C4.21191 19.1272 0 23.3391 0 28.5157V36.1264L0.0193436 36.2437L0.543492 36.4091C4.50705 37.6464 8.04443 38.2168 11.1169 38.3965V36.0983C11.1182 31.0578 14.484 26.7916 19.0871 25.4219Z" fill="url(#paint0_linear_2355_9805)"/>
<defs>
<linearGradient id="paint0_linear_2355_9805" x1="0" y1="24.9998" x2="50" y2="24.9998" gradientUnits="userSpaceOnUse">
<stop stop-color="#003B8D"/>
<stop offset="1" stop-color="#0062EB"/>
</linearGradient>
</defs>
</svg>
