<svg width="50" height="50" viewBox="0 0 50 50" fill="none" xmlns="http://www.w3.org/2000/svg">
<path d="M46.3712 4.19294C46.3009 3.91169 46.0821 3.69294 45.8009 3.62263C40.0821 2.19294 33.9415 3.89607 29.7782 8.06013C28.8548 8.97966 15.4579 22.3867 15.4579 22.3867C14.0954 23.5601 13.6821 25.5945 14.529 27.1836C14.8962 28.0898 20.761 33.5586 21.5134 34.425C23.0321 36.3093 26.0305 36.4101 27.6071 34.5422C27.6071 34.5422 41.0235 21.1187 41.9337 20.2148C46.0782 16.1265 47.8219 9.832 46.3712 4.19294ZM25.1688 31.4484C25.0975 31.5226 25.012 31.5816 24.9174 31.6218C24.8227 31.6621 24.7209 31.6829 24.618 31.6829C24.5152 31.6829 24.4134 31.6621 24.3187 31.6218C24.2241 31.5816 24.1386 31.5226 24.0673 31.4484L18.5438 25.925C18.3977 25.7789 18.3157 25.5808 18.3157 25.3742C18.3157 25.1676 18.3977 24.9695 18.5438 24.8234C18.6899 24.6773 18.888 24.5953 19.0946 24.5953C19.3012 24.5953 19.4993 24.6773 19.6454 24.8234L25.1688 30.3468C25.4735 30.6515 25.4735 31.1437 25.1688 31.4484ZM27.9345 28.6906C27.7861 28.8353 27.587 28.9163 27.3798 28.9163C27.1725 28.9163 26.9735 28.8353 26.8251 28.6906L24.0673 25.925C23.9949 25.8526 23.9376 25.7668 23.8984 25.6723C23.8593 25.5778 23.8391 25.4765 23.8391 25.3742C23.8391 25.2719 23.8593 25.1706 23.8984 25.0761C23.9376 24.9816 23.9949 24.8957 24.0673 24.8234C24.1396 24.7511 24.2255 24.6937 24.32 24.6546C24.4145 24.6154 24.5158 24.5953 24.618 24.5953C24.7203 24.5953 24.8216 24.6154 24.9161 24.6546C25.0106 24.6937 25.0965 24.7511 25.1688 24.8234L27.9345 27.5812C28.2391 27.8859 28.2391 28.3859 27.9345 28.6906ZM39.1688 17.457C34.6227 21.6843 28.3095 15.3687 32.536 10.825C37.0555 6.57497 43.4173 12.9398 39.1688 17.4578V17.457ZM20.7555 35.8703L14.1149 29.2297C13.6653 28.7785 13.2978 28.2524 13.029 27.675C11.3688 28.1187 10.7868 30.4039 12.0446 31.5812L18.4118 37.9484C18.8571 38.3937 19.4509 38.6359 20.0602 38.6359C21.0618 38.6437 21.9868 37.9867 22.2946 37.0343L22.318 36.964C21.7358 36.6962 21.2065 36.3257 20.7555 35.8703ZM10.7165 23.9492H12.7243C12.7712 23.7617 12.8337 23.5742 12.904 23.3867C13.1696 22.6758 13.5915 22.0351 14.1384 21.4961L24.2243 11.4187L24.779 10.8562C21.1071 10.3718 17.404 11.5984 14.7087 14.2937L9.06023 19.95C7.56257 21.3187 8.69461 24.0312 10.7165 23.9492ZM38.5743 25.7851L28.4813 35.8703C27.8048 36.5601 26.9673 37.0211 26.0438 37.2843V39.2765C26.0126 40.5656 27.1329 41.6445 28.4032 41.6273C29.0048 41.6273 29.5907 41.3929 30.0438 40.9398L35.7001 35.2836C38.3954 32.5883 39.622 28.8937 39.1376 25.2226L38.5743 25.7851Z" fill="url(#paint0_linear_2355_9834)"/>
<path d="M35.8563 11.0124C33.1376 10.946 31.6719 14.478 33.6454 16.3483C34.8251 17.528 36.8797 17.528 38.0672 16.3483C40.036 14.4749 38.5719 10.9483 35.8563 11.0124ZM13.5735 36.4265C13.427 36.28 13.2283 36.1977 13.0211 36.1977C12.814 36.1977 12.6153 36.28 12.4688 36.4265L4.32115 44.5671C4.24366 44.6384 4.18138 44.7247 4.13808 44.8207C4.09477 44.9167 4.07132 45.0204 4.06914 45.1257C4.06696 45.231 4.08609 45.3357 4.12538 45.4334C4.16468 45.5311 4.22332 45.6199 4.29779 45.6943C4.37227 45.7688 4.46103 45.8275 4.55874 45.8668C4.65646 45.9061 4.76111 45.9252 4.8664 45.923C4.9717 45.9208 5.07547 45.8974 5.17147 45.8541C5.26748 45.8108 5.35373 45.7485 5.42505 45.671L13.5735 37.5311C13.72 37.3846 13.8022 37.186 13.8022 36.9788C13.8022 36.7716 13.72 36.573 13.5735 36.4265ZM15.7891 39.7319L9.98443 45.5358C9.26646 46.2593 10.3633 47.3608 11.0891 46.6405L16.8938 40.8358C17.611 40.1132 16.5157 39.0108 15.7891 39.7319ZM10.261 34.203C10.979 33.4811 9.88365 32.378 9.1563 33.0991L3.35162 38.9038C2.85474 39.3663 3.23599 40.2608 3.90474 40.2366C4.00735 40.2367 4.10896 40.2166 4.20375 40.1773C4.29854 40.138 4.38463 40.0804 4.45709 40.0077L10.2618 34.203H10.261Z" fill="url(#paint1_linear_2355_9834)"/>
<defs>
<linearGradient id="paint0_linear_2355_9834" x1="8.37329" y1="22.3763" x2="46.875" y2="22.3763" gradientUnits="userSpaceOnUse">
<stop stop-color="#003B8D"/>
<stop offset="1" stop-color="#0062EB"/>
</linearGradient>
<linearGradient id="paint1_linear_2355_9834" x1="3.125" y1="28.9433" x2="38.9742" y2="28.9433" gradientUnits="userSpaceOnUse">
<stop stop-color="#003B8D"/>
<stop offset="1" stop-color="#0062EB"/>
</linearGradient>
</defs>
</svg>
