<svg width="50" height="50" viewBox="0 0 50 50" fill="none" xmlns="http://www.w3.org/2000/svg">
<path d="M16.182 9.36309C16.2004 9.09277 16.354 8.87031 16.6002 8.75742L23.8443 5.43574C24.0727 5.33096 24.318 5.34766 24.5303 5.48232C24.7426 5.61699 24.862 5.83193 24.8643 6.0833L24.9399 14.0523C24.9426 14.3231 24.8065 14.5568 24.5697 14.6885C24.333 14.82 24.0627 14.8122 23.834 14.667L21.8691 13.4195C21.7257 14.1349 21.6537 14.8628 21.6541 15.5924C21.6541 21.6622 26.5747 26.5828 32.6445 26.5828C38.7143 26.5828 43.6349 21.6622 43.6349 15.5924C43.6349 9.52256 38.7143 4.60195 32.6445 4.60195C30.2533 4.60195 28.0407 5.36582 26.2369 6.6626L26.2313 6.07022C26.2245 5.35557 25.8663 4.71094 25.2628 4.32793C24.8396 4.05938 24.3496 3.95469 23.8707 4.01934C26.308 2.16826 29.3477 1.06934 32.6445 1.06934C40.6653 1.06934 47.1675 7.57148 47.1675 15.5923C47.1675 23.6131 40.6653 30.1152 32.6445 30.1152C24.6237 30.1152 18.1216 23.613 18.1216 15.5923C18.1216 14.144 18.3336 12.7452 18.7282 11.4254L16.5141 10.0196C16.2854 9.87451 16.1634 9.6332 16.1817 9.36299L16.182 9.36309ZM30.8948 20.7144C31.359 20.7755 31.7843 20.6311 32.1153 20.3L39.6148 12.8005C40.1491 12.2662 40.1491 11.3919 39.6148 10.8576C39.0805 10.3233 38.2062 10.3233 37.6719 10.8576L31.3617 17.1679L29.6016 14.1194C29.2244 13.466 28.3785 13.2393 27.725 13.6166C27.0706 13.9944 26.8443 14.8389 27.2221 15.4933L29.8231 19.9982C30.0572 20.4037 30.4306 20.6532 30.8948 20.7144ZM45.7518 30.9752C41.841 33.233 35.6615 37.7623 30.4801 37.9234C27.8277 37.9883 24.7149 37.3343 23.4506 36.6763C22.9049 36.3926 22.8139 35.8605 23.0145 35.4749C23.215 35.0892 23.7575 34.9334 24.1432 35.1339C25.2375 35.7033 28.0046 36.2676 30.4095 36.2088C31.3303 36.1862 32.1777 36.0782 32.8065 35.8494C34.677 35.1688 34.126 32.4908 31.8777 32.5758C18.6579 32.5758 17.9119 22.4188 6.81648 35.5258C6.8239 35.5331 6.83152 35.5402 6.83894 35.5477L14.457 43.1656C14.4877 43.1963 14.5174 43.2275 14.5466 43.2592C16.9601 42.1235 19.6363 42.1008 22.5022 42.2723C24.707 42.4041 27.3383 42.7225 29.7522 42.6691C33.1253 42.5946 35.1925 41.6791 38.1544 40.1101C41.5264 38.3238 47.3873 34.766 48.4097 33.4221C49.8729 31.4984 47.9839 29.6867 45.7519 30.9752H45.7518ZM5.65769 36.729C5.02869 36.1 3.99939 36.1 3.37029 36.729L1.0741 39.0251L10.9795 48.9306L13.2756 46.6344C13.9046 46.0054 13.9046 44.976 13.2756 44.347L5.6575 36.729H5.65769Z" fill="url(#paint0_linear_2355_9816)"/>
<defs>
<linearGradient id="paint0_linear_2355_9816" x1="1.0741" y1="25" x2="48.9258" y2="25" gradientUnits="userSpaceOnUse">
<stop stop-color="#003B8D"/>
<stop offset="1" stop-color="#0062EB"/>
</linearGradient>
</defs>
</svg>
