<svg width="50" height="50" viewBox="0 0 50 50" fill="none" xmlns="http://www.w3.org/2000/svg">
<path d="M47.6562 43.2969H46.2969V17.5313C46.2969 17.1016 45.9531 16.75 45.5156 16.75H39.1172C38.6797 16.75 38.3359 17.1016 38.3359 17.5313V43.2969H34.7578V21.7422C34.7578 21.3047 34.4062 20.961 33.9766 20.961H27.5703C27.1406 20.961 26.7891 21.3047 26.7891 21.7422V43.2969H23.2109V26.9766C23.2109 26.5391 22.8594 26.1953 22.4297 26.1953H16.0234C15.5938 26.1953 15.2422 26.5391 15.2422 26.9766V43.2969H11.6641V32.4375C11.6641 32.0078 11.3203 31.6563 10.8828 31.6563H4.48437C4.04687 31.6563 3.70312 32.0078 3.70312 32.4375V43.2969H2.34375C1.91406 43.2969 1.5625 43.6485 1.5625 44.0781C1.5625 44.5078 1.91406 44.8594 2.34375 44.8594H47.6562C48.0859 44.8594 48.4375 44.5078 48.4375 44.0781C48.4375 43.6485 48.0859 43.2969 47.6562 43.2969ZM7.68359 26.7086C7.81434 26.7087 7.94301 26.6759 8.05781 26.6133L40.0508 9.1547L38.9367 12.9438C38.8835 13.1408 38.9095 13.3509 39.0092 13.5291C39.1089 13.7072 39.2744 13.8392 39.4702 13.8969C39.666 13.9546 39.8766 13.9333 40.057 13.8377C40.2373 13.7421 40.3731 13.5796 40.4352 13.3852L42.0805 7.78752C42.1095 7.68846 42.1188 7.58468 42.1078 7.48205C42.0967 7.38893 42.0686 7.29864 42.025 7.21564C42.0211 7.20783 42.0219 7.19923 42.018 7.1922C42.0156 7.18752 42.0109 7.18517 42.0086 7.18127C41.9607 7.09589 41.8971 7.02035 41.8211 6.95861C41.7567 6.91062 41.6853 6.87293 41.6094 6.84689C41.5891 6.83908 41.5734 6.82267 41.5523 6.81642L35.9539 5.17111C35.8555 5.14218 35.7523 5.13292 35.6503 5.14386C35.5483 5.1548 35.4494 5.18573 35.3593 5.23488C35.2693 5.28403 35.1898 5.35044 35.1254 5.43031C35.061 5.51019 35.0129 5.60197 34.984 5.70041C34.9551 5.79885 34.9458 5.90202 34.9567 6.00404C34.9677 6.10606 34.9986 6.20492 35.0478 6.29499C35.0969 6.38505 35.1633 6.46456 35.2432 6.52896C35.3231 6.59336 35.4148 6.6414 35.5133 6.67033L39.3023 7.78439L7.30859 25.2414C7.15608 25.3246 7.03562 25.4562 6.96627 25.6154C6.89691 25.7747 6.88261 25.9525 6.92563 26.1208C6.96864 26.2891 7.06652 26.4383 7.20379 26.5447C7.34106 26.6512 7.50989 26.7088 7.68359 26.7086Z" fill="url(#paint0_linear_2355_9848)"/>
<defs>
<linearGradient id="paint0_linear_2355_9848" x1="1.5625" y1="24.9994" x2="48.4375" y2="24.9994" gradientUnits="userSpaceOnUse">
<stop stop-color="#003B8D"/>
<stop offset="1" stop-color="#0062EB"/>
</linearGradient>
</defs>
</svg>
